<svg width="818" height="1202" fill="none" xmlns="http://www.w3.org/2000/svg"><path fill-rule="evenodd" clip-rule="evenodd" d="M639.529 304.003c-2.152-18.915.634-58.451.82-60.853 1.18-15.185-5.934-75.148-19.385-69.623-22.562-17.861-52.613-21.805-80.712-23.689-58.368-3.914-120.461 5.071-165.531 44.351-22.288 20.399-43.988 50.068-42.244 80.96-20.25 29.282-48.8 69.449-23.568 103.682 8.577 10.937 22.208 15.01 32.983 23.293 21.671 17.48 35.268 42.566 57.145 59.942 57.96 52.083 156.377 62.963 213.323 3.723 44.035-42.904 36.915-107.09 29.169-161.786-5.207-36.773 2.2 36.901-2 0Z" fill="#fff"/><path fill-rule="evenodd" clip-rule="evenodd" d="M462.28 69.625c15.61-3.15 31.639-5.11 47.58-4.52l1.229.048c11.994.48 27.184 1.54 37.647 8.514.602-.604 1.57-.914 2.448-.495 12.434 5.935 26.11 10.226 39.202 14.49 13.032 4.243 26.552 7.044 40.211 8.173 5.139.425 9.537 5.974 6.283 10.951a219.086 219.086 0 0 0-2.279 3.585c1.256-.131 2.512-.266 3.768-.393 4.133-.416 8.262 3.995 8.017 8.019a74.223 74.223 0 0 1-.83 7.503c1.574-.033 3.139.203 4.651.842 7.656 3.233 7.123 12.352 6.55 19.29-.794 9.628-4.395 19.826-11.081 27.032 4.992 5.185 8.526 11.377 10.634 18.731 1.529 5.37 2.38 11.09 1.96 16.68l-.134 1.674c-.519 6.066-1.552 12.782-5.916 17.146-2.24 2.25-5 3.07-7.631 2.81 1.591 13.98 2.611 28.04 3.571 42.05l.45 6.696c2.142 32.38 3.751 64.971 3.33 97.404-.391 30.31-6.38 59.73-24.97 84.34-16.931 22.41-41.24 38.93-68.74 45.21-14.82 3.39-29.95 3.63-44.95 1.47-7.271-1.05-14.59-2.66-21.491-5.2-7.639-2.82-13.129-6.97-18.269-13.19-2.431-2.95-1.261-9.23 3.58-8.64 7.321.888 14.005 1.958 21.024 4.123l1.005.317c6.991 2.24 14.231 3.91 21.54 4.62 14.971 1.45 30.17-.01 44.511-4.55 23.35-7.4 43.46-23.89 56.35-44.61 15.3-24.56 17.03-52.44 16.809-80.68-.237-30.988-1.245-61.995-2.89-92.951l-.28-5.159c-.87-15.93-1.71-31.87-2.449-47.81-.23-5-.58-10.04-1.211-15.03-5.769-3.38-10.939-8.04-14.309-13.79-6.77 2.8-13.89 4.82-20.441 6.43-15.174 3.732-30.928 4.638-46.373 2.301a137.059 137.059 0 0 1-12.729 4.536 284.927 284.927 0 0 1-3.497 1.523c-10.401 4.45-20.951 8.22-31.93 10.98l-2.697.673c-5.778 1.424-12.054 2.827-18.203 3.267-1.01.39-2.1.72-3.291 1.01a53.78 53.78 0 0 1-17.149 1.31c-5.591-.47-9.631-6.12-6.551-11.41 2.25-3.86 4.521-7.71 6.811-11.55-7.97 3.32-16.2 6.08-24.5 8.42-8.38 2.36-16.88 4.35-25.391 6.18-4.55.97-9.119 1.83-13.659 2.8-3.25.69-8.24 1.05-10.891 3.19-2.929 2.35-3.759 7.83-4.87 11.21-1.46 4.39-2.83 8.8-4.08 13.26a274.297 274.297 0 0 0-6.109 27.05c-1.58 9.13-2.641 18.35-3.231 27.6-.589 9.24-.33 18.54-1.279 27.74-.511 4.88-5.75 7.39-9.62 3.98-.454-.4-.912-.804-1.365-1.213l-.675-.617c-3.311-3-6.521-6.18-9.17-9.76-.48-.66-.94-1.35-1.37-2.05-.07 0-.13-.02-.2-.07l-.735-.553c-8.087-6.019-21.599-13.868-29.485-3.867-2.513 3.186-3.8 7.243-4.867 11.156l-1.874 7.005c-1.212 4.572-2.353 9.17-3.02 13.849-1.51 10.48-.75 22.56 6.461 30.96 2.88 3.36 6.85 5.76 11.279 6.39 2.471.34 4.911-.08 7.361-.39 2.49-.31 4.889.19 7.38-.05 3.96-.39 5.69 4.35 4.21 7.33-.8 1.6-1.741 2.98-2.81 4.15.859.74 1.68 1.54 2.47 2.38 2.34.75 4.439 2.36 6.01 4.49 1.27 1.72 1.929 3.59 2.04 5.56.139.49.259.99.37 1.5l2.145 3.482c.472.764.942 1.518 1.414 2.258 5.46 8.6 11.521 15.88 19.051 22.74 7.25 6.6 15.119 12.51 21.93 19.59l.802.841c6.35 6.691 13.043 14.79 10.558 24.519-.64 2.5-4.131 4.3-6.41 2.61-7.33-5.44-11.021-14.06-17.24-20.66-6.401-6.8-13.491-12.91-19.91-19.69-6.071-6.4-10.861-13.65-14.47-21.63-1.441 1.59-3.54 2.72-6.45 3.16-5 .75-9.661-2.18-11.84-6.51-1.401.62-2.83 1.18-4.271 1.62-7.58 2.32-12.349-6.11-9.489-12.34 1.529-3.34 3.439-6.24 5.81-8.68-7.411-1.02-14.951-4.85-19.821-9.63-12.219-12.01-13.899-30.06-11.149-46.11 1.46-8.51 3.979-17.12 7.25-25.11.569-1.39 1.18-2.79 1.849-4.17-.37-.01-.75-.17-.99-.48-2.21-3.02-4.899-5.49-6.54-8.87-1.51-3.1-3.189-6.24-4.38-9.47-2.449-6.61-3.649-14.07-4.449-21.06-1.65-14.31-1.011-28.53 1.18-42.75 3.729-24.22 12.737-47.398 26.008-67.736a11.546 11.546 0 0 1-2.06-1.38l-.319-.278-.518-.468c-3.787-3.427-3.46-9.85 0-13.321l1.093-1.095c1.383-1.375 2.577-2.464 4.812-3.961.33-.221.667-.429 1.008-.623-1.17-2.162-1.576-4.69-.761-7.479 2.84-9.716 16.82-9.372 25.681-5.135 9.803-8.749 20.673-16.344 32.455-22.494 28.061-14.64 59.79-24.85 90.771-31.09Zm-145.05 255.9c5.24-1.71 12.2 1.88 16.91 4.04 5.97 2.74 11.05 6.79 15.97 11.07 2.45 2.14 2.889 5.64 2.28 8.63-.061.3-.12.61-.191.92-.65 3.19-4.21 5.7-7.36 5.61-6.59-.18-9.729-5.87-13.46-10.69-.439.78-.989 1.5-1.67 2.04l-.46.36c-1.548 1.179-3.254 2.121-5.3 2.03a9.853 9.853 0 0 1-4.12-1.11c-3.2-1.69-4.609-5.83-3.74-9.2.54-2.12 1.78-3.78 3.4-4.93l-.604-.413c-1.292-.899-2.47-1.847-3.389-3.246l-.207-.331h.08c-1-1.72-.349-4.06 1.861-4.78Z" fill="#000"/><path fill-rule="evenodd" clip-rule="evenodd" d="M562.042 416.159c-7.367 2.133-15.274 2.324-22.783.121-6.811-1.999-13.804-6.398-18.817-12.218-4.453-5.171-7.337-11.454-7.223-18.161a2.966 2.966 0 0 1 .708-1.902 3.312 3.312 0 0 1 1.766-1.06 3.241 3.241 0 0 1 2.064.179 2.74 2.74 0 0 1 1.361 1.339 174.4 174.4 0 0 0 2.308 2.978c6.194 7.649 12.192 13.364 21.506 15.414 5.053 1.113 10.1.62 14.731-1.078 4.957-1.817 9.439-5.012 12.95-9.1 1.587-1.847 3.46-2.601 5.292-2.614 2.077-.014 4.129.95 5.674 2.492 1.52 1.516 2.537 3.575 2.63 5.73.081 1.89-.536 3.865-2.177 5.628-5.406 5.804-12.411 10.056-19.99 12.252Zm-.228-95.792c7.552 4.59 19.058 15.293 10.934 26.672-9.562 10.034-23.33-1.47-30.114-6.673-6.291-4.032-13.359 6.338-7.522 11.047 49.024 36.295 68.919-29.846 30.522-36.443-4.228-.727-5.798 3.977-3.82 5.397Zm-70.639-20.197c-2.427-1.552-5.282-2.085-8.446-.645-2.473 1.124-6.81 4.873-9.828 9.8-2.065 3.371-3.529 7.326-3.224 11.446.071.956-.283 1.662-.84 2.183-.441.412-1.077.715-1.824.81a4.734 4.734 0 0 1-1.922-.173c-1.098-.342-1.679-1.055-1.898-1.636-2.113-5.612-1.203-11.875 1.165-17.525 3.197-7.625 9.001-14.012 12.804-16.072 6.508-3.525 14.185-3.687 20.702-.096 5.547 3.057 9.016 7.991 12.466 13.021.733 1.07 1.461 2.131 2.214 3.174 1.507 2.089 1.657 4.161 1.073 5.938-.646 1.969-2.296 3.63-4.358 4.5-1.906.803-4.118.917-6.076.091-1.654-.698-3.171-2.057-4.132-4.364-1.617-3.886-4.312-8.173-7.876-10.452Zm123.266 8.644c-1.662.866-2.963 1.127-4.807.575a6.833 6.833 0 0 1-2.816-1.682c-.782-.782-1.346-1.755-1.566-2.833-.539-2.663-1.996-5.155-4.071-6.779-1.775-1.389-4.014-2.125-6.498-1.71-2.681.448-5.234 2.167-6.993 4.194-.588.678-1.049 1.448-1.512 2.213-.867 1.431-1.709 2.761-2.904 3.811-.453.4-1.136.677-1.797.677a2.7 2.7 0 0 1-.801-.125c-2.668-2.678-3.181-4.709-3.095-6.724.09-2.112.923-4.252 2.269-6.248 3.157-4.682 9.153-8.52 13.198-9.39 5.541-1.19 11.043.239 15.455 3.333 4.539 3.184 7.902 8.128 8.951 13.699.252 1.342.145 2.79-.366 4.046-.499 1.227-1.369 2.278-2.647 2.943Zm-111.047-58.562c-3.325 3.24-7.26 3.742-11.241 4.188-2.212.25-3.978.452-5.716.844-4.776 1.078-9.498 2.702-13.805 5.041-4.503 2.445-9.41 5.393-12.94 9.17-.839.899-1.63 1.842-2.423 2.787a72.854 72.854 0 0 1-2.152 2.492c-.843.919-1.643 1.882-2.438 2.843-.492.81-.589 1.01-.689 1.217a27.97 27.97 0 0 1-.52 1.035 20.45 20.45 0 0 1-.922 1.583c-.554.93-.851 1.187-1.108 1.301-.426.19-.83.283-1.222.233-.367-.048-.714-.224-1.056-.513-1.707-1.442-2.21-3.809-2.158-6.322.078-3.813 1.484-8.034 2.781-10.629 3.014-6.03 7.194-12.298 12.221-16.798 5.736-5.137 12.012-9.026 19.22-11.706 4.479-1.666 9.665-3.195 14.545-3.002 3.513.139 6.866 1.183 9.636 3.791 1.7 1.601 2.516 3.877 2.516 6.153 0 2.32-.847 4.654-2.529 6.292Zm117.809 29.665a1.821 1.821 0 0 1-.83.729 1.936 1.936 0 0 1-2.073-.346 1.845 1.845 0 0 1-.553-.956c-2.207-9.695-6.494-16.909-15.643-21.561-4.5-2.288-9.675-3.742-14.574-4.901-1.424-.337-2.928-.555-4.443-.776-4.748-.694-9.53-1.488-12.625-5.325-1.865-2.312-2.648-5.269-2.206-7.972.417-2.546 1.905-4.88 4.609-6.279 6.732-3.481 15.099-.066 21.898 2.844.504.216.999.428 1.483.632 6.649 2.807 12.713 6.511 17.698 11.809 3.955 4.203 7.619 10.416 9.095 16.808 1.228 5.317.939 10.746-1.836 15.294Z" fill="#000"/><path fill-rule="evenodd" clip-rule="evenodd" d="M96.774 1177.91c61.232 1.72 119.075 3.61 180.189 0 97.796-6.05 384.794 4.86 447.879 0 4.761-.36 21.133 4.86 21.474 0 2.773-33.81 4.571-375.842-3.668-399.377-8.239-23.534-48.907-136.668-100.726-189.422-14.449-14.252-36.437-19.773-48.583-36.243-10.472-17.959-9.659-28.5-20.001-37.949-4.488-4.1-15.072-5.763-22.937-11.454-7.908-7.859-.421-25.159-3.667-36.103-6.69-27.326-31.337-44.857-58.276-48.988-37.442-8.959-76.97-.488-94.904 28.922-6.676 10.948-3.123 24.255-11.334 41.797.586 13.257-14.891 16.46-24.142 21.713l-18.371 18.567c-56.6 31.846-123.184 49.043-172.777 91.829-42.164 42.773-84.102 92.211-102.81 150.081-3.873 15.769-5.137 32.067-6.742 48.18-4.582 47.088-17.34 92.791-28.32 138.658-12.52 57.789-24.192 119.139-7.317 177.469 4.864 12.35 63.958 41.74 75.033 42.32Z" fill="#fff"/><path fill-rule="evenodd" clip-rule="evenodd" d="M390.309 452.005c.49-1.601 2.601-1.151 2.761.37 1.59 15.08-.41 30.84-2.33 45.82-.92 7.23-1.451 14.75-2.851 21.879-.18.761-.35 1.53-.51 2.291.46.819 1.821 1.739 2.47 2.369l2.823 2.745 5.657 5.476c11.071 10.72 22.14 21.449 33.21 32.17l16.25 15.75c5.571 5.399 11.901 10.57 16.79 16.59 2.651 3.269 3.25 7.279.64 10.779-1.29 1.73-3.609 2.99-5.96 3.25.92 1.28 1.63 2.73 2.08 4.341.92 3.28-2.399 7.309-5.929 5.939-4.01-1.54-7.321-4.3-11.401-5.62-4.12-1.34-8.599-1.599-12.87-.88-1.96.33-3.88.821-5.75 1.441 20.011 9.21 41.66 14.5 63.74 15.259 4.5.151 8.991.09 13.46-.209 7.521-.491 14.99-1.63 22.33-3.47a135.928 135.928 0 0 0 17.021-5.471c2.72-1.08 5.409-2.269 8.01-3.619l.228-.135c.588-.367 11.453-6.529 11.642-7.455.189-.926.19-1.248-.164-2.054-.354-.807-1.334-1.362-1.334-1.362-3.357-1.435-6.835-2.771-10.502-2.795-8.441-.05-17.651 6.191-24.63 10.441-7.67 4.67-14.721 10.129-22.101 15.19a.936.936 0 0 1-.54.17c-.779 0-1.5-.961-1-1.711 5.289-7.788 12.429-14.272 19.896-19.933l3.01-2.256c6.839-5.101 14.839-10.75 23.155-11.981 10.189-1.5 20.83 4.851 29.92 8.57l16.099 6.59c2.87 1.17 5.991 2.17 8.88 3.5l-6.746-21.109a8494.06 8494.06 0 0 1-10.063-31.68l-.646-2.07c-3.317-10.725-6.361-21.882-11.885-31.68-1.32-2.35-2.83-4.56-4.32-6.791-1.55-2.309-2.13-4.859-4.079-6.92-3.86-4.09-9.391-6.49-14.671-8.059-1.29-.38-.909-2.08.301-2.21 5.418-.571 10.585.693 15.481 2.978l2.035.971c4.631 2.191 9.145 4.228 12.583 8.16 7.839 8.98 11.91 20.287 15.651 31.445l1 2.996c1.399-.46 10.909 2.44 12.099 3.129 35.651 15.071 63.111 43.13 83.191 76.01 22 36.03 33.979 77.2 43.869 117.941a1957.692 1957.692 0 0 1 8.775 37.825c-12.493 4.807-25.771 7.322-37.466 14.094-4.455 2.579-.431 9.495 4.037 6.908 10.954-6.342 23.431-8.685 35.156-13.139 6.357 29.263 12.012 58.686 16.748 88.232 14.551 90.68 23.74 182.835 23.16 274.755-.01 2.04-.609 4.3-1.72 6.25.651-.31 1.161-.7 1.451-1.15 3.689-5.8 12.939-.42 9.229 5.4l-.542.84c-2.784 4.29-5.383 7.57-10.277 9.99-4.931 2.45-10.271 2.86-15.71 3-18.49.48-36.993.8-55.502 1.03-2.538-19.8-3.57-39.79-7.067-59.47-.899-5.06-8.61-2.92-7.714 2.13 3.377 19 4.458 38.3 6.815 57.43-39.57.43-79.162.43-118.702.55-53.585.15-107.163.04-160.746.01l-22.964-.01c-61.9 0-123.801-.2-185.7-.61l-14.721-.1c-5.856-34.52-9.842-69.34-9.916-104.42-.011-5.14-8.011-5.15-8 0 .074 35.04 4.016 69.86 9.818 104.38-14.656-.07-29.305-.02-43.962.5l-7.46.27c-14.926.51-29.882.83-44.78-.36-16.54-1.33-33.269-4.37-48.099-12.16a67.721 67.721 0 0 1-17.586-13.3c5.109-2.97 10.291-5.82 15.24-9.06 4.291-2.8.288-9.73-4.038-6.9-5.333 3.49-10.939 6.53-16.43 9.75-3.976-5.3-7.239-11.19-9.717-17.54-3.91-10.04-5.42-20.83-6.73-31.45-1.549-12.5-2.19-25.12-2.19-37.71 0-26.5 2.79-52.92 6.681-79.105 3.72-25.081 8.64-49.96 13.838-74.759l.711-3.382c5.13-24.38 10.02-48.83 15.9-73.04 5.437-22.387 11.72-44.669 19.208-66.52 6.665 4.121 13.64 7.726 20.201 12.019 4.321 2.828 8.334-4.096 4.038-6.907-7-4.581-14.466-8.388-21.53-12.864 8.373-23.398 18.201-46.25 29.984-68.137 23.599-43.83 55.4-83.041 96.13-111.98 20.389-14.481 42.759-26.33 66.25-34.951 23.95-8.799 48.769-13.62 74.149-15.599.725-.057 1.131.613 1.102 1.234l-.011.115 1 .161c.37-2.51 1.13-4.941 2.58-7.17 3.3-5.08 9.559-8.34 14.559-11.46l1.185-.737c5.949-3.688 12.227-7.32 19.146-8.613.24-.041.389.209.229.4-4.563 5.231-10.397 9.228-15.744 13.653l-1.229 1.025c-4.431 3.647-10.612 7.786-10.777 13.881-.189 7.181 1.28 14.65 1.811 21.811.53 7.139.899 14.269 1.089 21.429.691 25.651-.139 51.311-2.41 76.861l10.039-6.721c15.624-10.459 31.3-20.888 47.301-30.68 9.681-5.929 20.561-11 32.16-10.769 3.25.059 6.92.53 10.441 1.53-3.79-3.59-7.42-7.41-11.13-11.02-6.111-5.951-12.221-11.9-18.33-17.84l-17.617-17.16-17.624-17.161c-5.459-5.33-11.86-10.239-11.28-18.639.471-6.7 3.88-13.37 6.21-19.83.33-.93.63-1.85.91-2.76 4.701-15.62 7.37-31.811 12.14-47.37ZM618 1122.2c-3.644-3.65-9.302 2.01-5.656 5.66l1.928 1.92c3.22 3.21 6.412 6.52 8.64 10.49l.327.6c2.401 4.56 9.309.52 6.907-4.04-2.969-5.63-7.692-10.17-12.146-14.63Zm-156.132-1.03c-11.601-2.21-22.782-2.21-34.383 0-5.051.97-2.912 8.68 2.127 7.72 10.146-1.94 19.982-1.94 30.129 0 5.031.96 7.186-6.75 2.127-7.72Zm-156.672-80.64c-4.992-1.26-7.122 6.45-2.126 7.71l2.46.62c8.361 2.07 16.324 3.61 25.01 1.69 4.959-1.1 2.954-8.62-1.93-7.76l-.197.04c-8.037 1.78-15.441-.33-23.217-2.3Zm278.245-51.963c-3.694-3.591-9.357 2.06-5.657 5.656 4.617 4.49 10.058 7.907 16.652 8.087 5.073.14 5.145-7.623.227-7.991l-.227-.012c-4.419-.123-7.94-2.769-10.995-5.74Zm-470.825-21.366c4.606-2.303.559-9.205-4.037-6.907l-27.648 13.823c-4.606 2.303-.559 9.207 4.037 6.908l27.648-13.824Zm546.332 1.763c-5.15-.145-5.146 7.855 0 8 4.839.135 9.798 1.968 14.109 4.061 4.612 2.24 8.673-4.656 4.038-6.908-5.636-2.736-11.823-4.977-18.147-5.153Zm-258.332-38.626c4.234-2.877.236-9.813-4.038-6.908-5.832 3.962-11.116 8.645-16.855 12.727l-1.577 1.097c-4.234 2.877-.236 9.811 4.038 6.908 6.361-4.323 12.071-9.503 18.432-13.824Zm297.5-58.143c-5.148-.002-5.156 7.998 0 8l.976-.003c4.249-.024 8.728-.141 12.679 1.557l.454.204c4.632 2.182 8.697-4.713 4.038-6.907-5.793-2.728-11.85-2.848-18.147-2.851Zm-444.28-5.715.672-.252c4.81-1.727 2.736-9.461-2.127-7.713-7.328 2.633-13.029 7.606-19.386 11.922-4.236 2.877-.238 9.811 4.037 6.909 5.477-3.72 10.574-8.43 16.804-10.866Zm300.068-20.812 1.079-.578c4.58-2.357.537-9.262-4.037-6.908-3.631 1.868-6.88 4.354-10.442 6.334l-1.079.578c-4.579 2.356-.537 9.261 4.038 6.908 3.631-1.869 6.88-4.355 10.441-6.334ZM432.201 768.18l-.824-.796c-3.682-3.605-9.343 2.048-5.657 5.657 9.206 9.01 20.09 15.851 31.069 22.465l1.997 1.2c4.425 2.655 8.452-4.259 4.038-6.908l-2.931-1.762c-9.761-5.886-19.409-11.963-27.692-19.856Zm-221.382-7.469c3.102-4.028-3.644-7.97-6.797-4.177l-.111.139c-3.229 4.192-7.061 7.987-11.065 11.451l-.753.645c-2.384 2.028-6.723 6.373-10.072 6.659-5.092.433-5.138 8.437 0 8 5.182-.441 9.641-4.088 13.556-7.213a90.32 90.32 0 0 0 15.242-15.504Zm425.613-29.143c3.717-3.492-1.774-9.05-5.524-5.775l-.132.119c-6.947 6.526-16.94 8.277-25.883 10.49-4.995 1.238-2.879 8.954 2.127 7.715l4.074-1.006c9.139-2.28 18.309-4.937 25.338-11.543Zm-158.436-50.461c-4.992-1.269-7.122 6.445-2.126 7.714 8.485 2.156 16.522 4.943 24.387 8.813 4.604 2.264 8.662-4.632 4.038-6.908-8.462-4.164-17.163-7.297-26.299-9.619Zm81.723-168.642c-.12-.36.261-.77.63-.641 8.978 3.347 4.205 15.106 1.416 22.144l-.506 1.287c-4.37 11.28-10.479 22.26-17.139 32.36a272.38 272.38 0 0 1-23.09 30.19 256.93 256.93 0 0 1-11.304 12.017l-1.467 1.452c-3.939 3.871-9.019 10.671-15.13 9.921-6.58-.791-10.25-7.82-5.45-13.16 3.391-3.78 8.091-6.791 11.88-10.23a258.323 258.323 0 0 0 10.95-10.52c7.261-7.41 14.141-15.24 20.431-23.49 6.083-7.978 11.905-16.177 17.198-24.701l1.052-1.709c4.029-6.63 13.33-16.38 10.529-24.92ZM241.64 596.263c-4.262-2.914-8.268 4.016-4.038 6.907 7.778 5.316 14.621 11.756 23.04 16.128 4.508 2.342 8.517-4.369 4.198-6.82l-.16-.087c-8.413-4.371-15.266-10.816-23.04-16.128Z" fill="#000"/></svg>