<svg width="818" height="1202" viewBox="0 0 818 1202" fill="none" xmlns="http://www.w3.org/2000/svg">
<path fill-rule="evenodd" clip-rule="evenodd" d="M639.529 304.003C637.377 285.088 640.163 245.552 640.349 243.15C641.529 227.965 634.415 168.002 620.964 173.527C598.402 155.666 568.351 151.722 540.252 149.838C481.884 145.924 419.791 154.909 374.721 194.189C352.433 214.588 330.733 244.257 332.477 275.149C312.227 304.431 283.677 344.598 308.909 378.831C317.486 389.768 331.117 393.841 341.892 402.124C363.563 419.604 377.16 444.69 399.037 462.066C456.997 514.149 555.414 525.029 612.36 465.789C656.395 422.885 649.275 358.699 641.529 304.003C636.322 267.23 643.729 340.904 639.529 304.003Z" fill="white"/>
<path fill-rule="evenodd" clip-rule="evenodd" d="M462.28 69.6251C477.89 66.4751 493.919 64.5151 509.86 65.1051L511.089 65.1528C523.083 65.6322 538.273 66.6926 548.736 73.6671C549.338 73.0631 550.306 72.7531 551.184 73.1721C563.618 79.1071 577.294 83.3981 590.386 87.6621C603.418 91.9051 616.938 94.7061 630.597 95.8351C635.736 96.2601 640.134 101.809 636.88 106.786C636.106 107.972 635.352 109.17 634.601 110.371C635.857 110.24 637.113 110.105 638.369 109.978C642.502 109.562 646.631 113.973 646.386 117.997C646.233 120.528 645.96 123.029 645.556 125.5C647.13 125.467 648.695 125.703 650.207 126.342C657.863 129.575 657.33 138.694 656.757 145.632C655.963 155.26 652.362 165.458 645.676 172.664C650.668 177.849 654.202 184.041 656.31 191.395C657.839 196.765 658.69 202.485 658.27 208.075L658.136 209.749C657.617 215.815 656.584 222.531 652.22 226.895C649.98 229.145 647.22 229.965 644.589 229.705C646.18 243.685 647.2 257.745 648.16 271.755L648.61 278.451C650.752 310.831 652.361 343.422 651.94 375.855C651.549 406.165 645.56 435.585 626.97 460.195C610.039 482.605 585.73 499.125 558.23 505.405C543.41 508.795 528.28 509.035 513.28 506.875C506.009 505.825 498.69 504.215 491.789 501.675C484.15 498.855 478.66 494.705 473.52 488.485C471.089 485.535 472.259 479.255 477.1 479.845C484.421 480.733 491.105 481.803 498.124 483.968L499.129 484.285C506.12 486.525 513.36 488.195 520.669 488.905C535.64 490.355 550.839 488.895 565.18 484.355C588.53 476.955 608.64 460.465 621.53 439.745C636.83 415.185 638.56 387.305 638.339 359.065C638.102 328.077 637.094 297.07 635.449 266.114L635.169 260.955C634.299 245.025 633.459 229.085 632.72 213.145C632.49 208.145 632.14 203.105 631.509 198.115C625.74 194.735 620.57 190.075 617.2 184.325C610.43 187.125 603.31 189.145 596.759 190.755C581.585 194.487 565.831 195.393 550.386 193.056C546.22 194.777 541.971 196.29 537.657 197.592C536.491 198.109 535.325 198.617 534.16 199.115C523.759 203.565 513.209 207.335 502.23 210.095L499.533 210.768C493.755 212.192 487.479 213.595 481.33 214.035C480.32 214.425 479.23 214.755 478.039 215.045C472.44 216.405 466.629 216.835 460.89 216.355C455.299 215.885 451.259 210.235 454.339 204.945C456.589 201.085 458.86 197.235 461.15 193.395C453.18 196.715 444.95 199.475 436.65 201.815C428.27 204.175 419.77 206.165 411.259 207.995C406.709 208.965 402.14 209.825 397.6 210.795C394.35 211.485 389.36 211.845 386.709 213.985C383.78 216.335 382.95 221.815 381.839 225.195C380.379 229.585 379.009 233.995 377.759 238.455C375.27 247.355 373.23 256.385 371.65 265.505C370.07 274.635 369.009 283.855 368.419 293.105C367.83 302.345 368.089 311.645 367.14 320.845C366.629 325.725 361.39 328.235 357.52 324.825C357.066 324.425 356.608 324.021 356.155 323.612L355.48 322.995C352.169 319.995 348.959 316.815 346.31 313.235C345.83 312.575 345.37 311.885 344.94 311.185C344.87 311.185 344.81 311.165 344.74 311.115L344.005 310.562C335.918 304.543 322.406 296.694 314.52 306.695C312.007 309.881 310.72 313.938 309.653 317.851L307.779 324.856C306.567 329.428 305.426 334.026 304.759 338.705C303.249 349.185 304.009 361.265 311.22 369.665C314.1 373.025 318.07 375.425 322.499 376.055C324.97 376.395 327.41 375.975 329.86 375.665C332.35 375.355 334.749 375.855 337.24 375.615C341.2 375.225 342.93 379.965 341.45 382.945C340.65 384.545 339.709 385.925 338.64 387.095C339.499 387.835 340.32 388.635 341.11 389.475C343.45 390.225 345.549 391.835 347.12 393.965C348.39 395.685 349.049 397.555 349.16 399.525C349.299 400.015 349.419 400.515 349.53 401.025L351.675 404.507C352.147 405.271 352.617 406.025 353.089 406.765C358.549 415.365 364.61 422.645 372.14 429.505C379.39 436.105 387.259 442.015 394.07 449.095L394.872 449.936C401.222 456.627 407.915 464.726 405.43 474.455C404.79 476.955 401.299 478.755 399.02 477.065C391.69 471.625 387.999 463.005 381.78 456.405C375.379 449.605 368.289 443.495 361.87 436.715C355.799 430.315 351.009 423.065 347.4 415.085C345.959 416.675 343.86 417.805 340.95 418.245C335.95 418.995 331.289 416.065 329.11 411.735C327.709 412.355 326.28 412.915 324.839 413.355C317.259 415.675 312.49 407.245 315.35 401.015C316.879 397.675 318.789 394.775 321.16 392.335C313.749 391.315 306.209 387.485 301.339 382.705C289.12 370.695 287.44 352.645 290.19 336.595C291.65 328.085 294.169 319.475 297.44 311.485C298.009 310.095 298.62 308.695 299.289 307.315C298.919 307.305 298.539 307.145 298.299 306.835C296.089 303.815 293.4 301.345 291.759 297.965C290.249 294.865 288.57 291.725 287.379 288.495C284.93 281.885 283.73 274.425 282.93 267.435C281.28 253.125 281.919 238.905 284.11 224.685C287.839 200.465 296.847 177.287 310.118 156.949C309.395 156.569 308.703 156.111 308.058 155.569L307.739 155.291L307.221 154.823C303.434 151.396 303.761 144.973 307.221 141.502L308.314 140.407C309.697 139.032 310.891 137.943 313.126 136.446C313.456 136.225 313.793 136.017 314.134 135.823C312.964 133.661 312.558 131.133 313.373 128.344C316.213 118.628 330.193 118.972 339.054 123.209C348.857 114.46 359.727 106.865 371.509 100.715C399.57 86.0751 431.299 75.8651 462.28 69.6251ZM317.23 325.525C322.47 323.815 329.43 327.405 334.14 329.565C340.11 332.305 345.19 336.355 350.11 340.635C352.56 342.775 352.999 346.275 352.39 349.265C352.329 349.565 352.27 349.875 352.199 350.185C351.549 353.375 347.989 355.885 344.839 355.795C338.249 355.615 335.11 349.925 331.379 345.105C330.94 345.885 330.39 346.605 329.709 347.145L329.249 347.505C327.701 348.684 325.995 349.626 323.949 349.535C322.499 349.465 321.11 349.095 319.829 348.425C316.629 346.735 315.22 342.595 316.089 339.225C316.629 337.105 317.869 335.445 319.489 334.295L318.885 333.882C317.593 332.983 316.415 332.035 315.496 330.636L315.289 330.305H315.369C314.369 328.585 315.02 326.245 317.23 325.525Z" fill="black"/>
<path fill-rule="evenodd" clip-rule="evenodd" d="M562.042 416.159C554.675 418.292 546.768 418.483 539.259 416.28C532.448 414.281 525.455 409.882 520.442 404.062C515.989 398.891 513.105 392.608 513.219 385.901C513.232 385.135 513.506 384.495 513.927 383.999C514.38 383.465 515.014 383.098 515.693 382.939C516.391 382.775 517.128 382.833 517.757 383.118C518.326 383.377 518.813 383.816 519.118 384.457C519.888 385.469 520.655 386.466 521.426 387.435C527.62 395.084 533.618 400.799 542.932 402.849C547.985 403.962 553.032 403.469 557.663 401.771C562.62 399.954 567.102 396.759 570.613 392.671C572.2 390.824 574.073 390.07 575.905 390.057C577.982 390.043 580.034 391.007 581.579 392.549C583.099 394.065 584.116 396.124 584.209 398.279C584.29 400.169 583.673 402.144 582.032 403.907C576.626 409.711 569.621 413.963 562.042 416.159ZM561.814 320.367C569.366 324.957 580.872 335.66 572.748 347.039C563.186 357.073 549.418 345.569 542.634 340.366C536.343 336.334 529.275 346.704 535.112 351.413C584.136 387.708 604.031 321.567 565.634 314.97C561.406 314.243 559.836 318.947 561.814 320.367ZM491.175 300.17C488.748 298.618 485.893 298.085 482.729 299.525C480.256 300.649 475.919 304.398 472.901 309.325C470.836 312.696 469.372 316.651 469.677 320.771C469.748 321.727 469.394 322.433 468.837 322.954C468.396 323.366 467.76 323.669 467.013 323.764C466.379 323.844 465.669 323.772 465.091 323.591C463.993 323.249 463.412 322.536 463.193 321.955C461.08 316.343 461.99 310.08 464.358 304.43C467.555 296.805 473.359 290.418 477.162 288.358C483.67 284.833 491.347 284.671 497.864 288.262C503.411 291.319 506.88 296.253 510.33 301.283C511.063 302.353 511.791 303.414 512.544 304.457C514.051 306.546 514.201 308.618 513.617 310.395C512.971 312.364 511.321 314.025 509.259 314.895C507.353 315.698 505.141 315.812 503.183 314.986C501.529 314.288 500.012 312.929 499.051 310.622C497.434 306.736 494.739 302.449 491.175 300.17V300.17ZM614.441 308.814C612.779 309.68 611.478 309.941 609.634 309.389C608.615 309.083 607.607 308.496 606.818 307.707C606.036 306.925 605.472 305.952 605.252 304.874C604.713 302.211 603.256 299.719 601.181 298.095C599.406 296.706 597.167 295.97 594.683 296.385C592.002 296.833 589.449 298.552 587.69 300.579C587.102 301.257 586.641 302.027 586.178 302.792C585.311 304.223 584.469 305.553 583.274 306.603C582.821 307.003 582.138 307.28 581.477 307.28C581.208 307.28 580.935 307.236 580.676 307.155C578.008 304.477 577.495 302.446 577.581 300.431C577.671 298.319 578.504 296.179 579.85 294.183C583.007 289.501 589.003 285.663 593.048 284.793C598.589 283.603 604.091 285.032 608.503 288.126C613.042 291.31 616.405 296.254 617.454 301.825C617.706 303.167 617.599 304.615 617.088 305.871C616.589 307.098 615.719 308.149 614.441 308.814ZM503.394 250.252C500.069 253.492 496.134 253.994 492.153 254.44C489.941 254.69 488.175 254.892 486.437 255.284C481.661 256.362 476.939 257.986 472.632 260.325C468.129 262.77 463.222 265.718 459.692 269.495C458.853 270.394 458.062 271.337 457.269 272.282C456.547 273.144 455.851 273.974 455.117 274.774C454.274 275.693 453.474 276.656 452.679 277.617C452.187 278.427 452.09 278.627 451.99 278.834C451.841 279.146 451.668 279.495 451.47 279.869C451.198 280.382 450.881 280.943 450.548 281.452C449.994 282.382 449.697 282.639 449.44 282.753C449.014 282.943 448.61 283.036 448.218 282.986C447.851 282.938 447.504 282.762 447.162 282.473C445.455 281.031 444.952 278.664 445.004 276.151C445.082 272.338 446.488 268.117 447.785 265.522C450.799 259.492 454.979 253.224 460.006 248.724C465.742 243.587 472.018 239.698 479.226 237.018C483.705 235.352 488.891 233.823 493.771 234.016C497.284 234.155 500.637 235.199 503.407 237.807C505.107 239.408 505.923 241.684 505.923 243.96C505.923 246.28 505.076 248.614 503.394 250.252ZM621.203 279.917C620.991 280.264 620.699 280.503 620.373 280.646C620.032 280.797 619.651 280.84 619.285 280.778C618.921 280.717 618.575 280.552 618.3 280.3C618.037 280.058 617.837 279.737 617.747 279.344C615.54 269.649 611.253 262.435 602.104 257.783C597.604 255.495 592.429 254.041 587.53 252.882C586.106 252.545 584.602 252.327 583.087 252.106C578.339 251.412 573.557 250.618 570.462 246.781C568.597 244.469 567.814 241.512 568.256 238.809C568.673 236.263 570.161 233.929 572.865 232.53C579.597 229.049 587.964 232.464 594.763 235.374C595.267 235.59 595.762 235.802 596.246 236.006C602.895 238.813 608.959 242.517 613.944 247.815C617.899 252.018 621.563 258.231 623.039 264.623C624.267 269.94 623.978 275.369 621.203 279.917Z" fill="black"/>
<path fill-rule="evenodd" clip-rule="evenodd" d="M96.7743 1177.91C158.006 1179.63 215.849 1181.52 276.963 1177.91C374.759 1171.86 661.757 1182.77 724.842 1177.91C729.603 1177.55 745.975 1182.77 746.316 1177.91C749.089 1144.1 750.887 802.068 742.648 778.533C734.409 754.999 693.741 641.865 641.922 589.111C627.473 574.859 605.485 569.338 593.339 552.868C582.867 534.909 583.68 524.368 573.338 514.919C568.85 510.819 558.266 509.156 550.401 503.465C542.493 495.606 549.98 478.306 546.734 467.362C540.044 440.036 515.397 422.505 488.458 418.374C451.016 409.415 411.488 417.886 393.554 447.296C386.878 458.244 390.431 471.551 382.22 489.093C382.806 502.35 367.329 505.553 358.078 510.806L339.707 529.373C283.107 561.219 216.523 578.416 166.93 621.202C124.766 663.975 82.8282 713.413 64.1202 771.283C60.2472 787.052 58.9832 803.35 57.3782 819.463C52.7962 866.551 40.0372 912.254 29.0572 958.121C16.5372 1015.91 4.86649 1077.26 21.7405 1135.59C26.6055 1147.94 85.6993 1177.33 96.7743 1177.91Z" fill="white"/>
<path fill-rule="evenodd" clip-rule="evenodd" d="M390.309 452.005C390.799 450.404 392.91 450.854 393.07 452.375C394.66 467.455 392.66 483.215 390.74 498.195C389.82 505.425 389.289 512.945 387.889 520.074C387.709 520.835 387.539 521.604 387.379 522.365C387.839 523.184 389.2 524.104 389.849 524.734L392.672 527.479L398.329 532.955C409.4 543.675 420.469 554.404 431.539 565.125L447.789 580.875C453.36 586.274 459.69 591.445 464.579 597.465C467.23 600.734 467.829 604.744 465.219 608.244C463.929 609.974 461.61 611.234 459.259 611.494C460.179 612.774 460.889 614.224 461.339 615.835C462.259 619.115 458.94 623.144 455.41 621.774C451.4 620.234 448.089 617.474 444.009 616.154C439.889 614.814 435.41 614.555 431.139 615.274C429.179 615.604 427.259 616.095 425.389 616.715C445.4 625.925 467.049 631.215 489.129 631.974C493.629 632.125 498.12 632.064 502.589 631.765C510.11 631.274 517.579 630.135 524.919 628.295C530.69 626.845 536.4 625.024 541.94 622.824C544.66 621.744 547.349 620.555 549.95 619.205L550.178 619.07C550.766 618.703 561.631 612.541 561.82 611.615C562.009 610.689 562.01 610.367 561.656 609.561C561.302 608.754 560.322 608.199 560.322 608.199C556.965 606.764 553.487 605.428 549.82 605.404C541.379 605.354 532.169 611.595 525.19 615.845C517.52 620.515 510.469 625.974 503.089 631.035C502.919 631.154 502.73 631.205 502.549 631.205C501.77 631.205 501.049 630.244 501.549 629.494C506.838 621.706 513.978 615.222 521.445 609.561L524.455 607.305C531.294 602.204 539.294 596.555 547.61 595.324C557.799 593.824 568.44 600.175 577.53 603.894L593.629 610.484C596.499 611.654 599.62 612.654 602.509 613.984L595.763 592.875C592.392 582.32 589.029 571.761 585.7 561.195L585.054 559.125C581.737 548.4 578.693 537.243 573.169 527.445C571.849 525.095 570.339 522.885 568.849 520.654C567.299 518.345 566.719 515.795 564.77 513.734C560.91 509.644 555.379 507.244 550.099 505.675C548.809 505.295 549.19 503.595 550.4 503.465C555.818 502.894 560.985 504.158 565.881 506.443L567.916 507.414C572.547 509.605 577.061 511.642 580.499 515.574C588.338 524.554 592.409 535.861 596.15 547.019L597.15 550.015C598.549 549.555 608.059 552.455 609.249 553.144C644.9 568.215 672.36 596.274 692.44 629.154C714.44 665.184 726.419 706.354 736.309 747.095C739.361 759.668 742.28 772.28 745.084 784.92C732.591 789.727 719.313 792.242 707.618 799.014C703.163 801.593 707.187 808.509 711.655 805.922C722.609 799.58 735.086 797.237 746.811 792.783C753.168 822.046 758.823 851.469 763.559 881.015C778.11 971.695 787.299 1063.85 786.719 1155.77C786.709 1157.81 786.11 1160.07 784.999 1162.02C785.65 1161.71 786.16 1161.32 786.45 1160.87C790.139 1155.07 799.389 1160.45 795.679 1166.27L795.137 1167.11C792.353 1171.4 789.754 1174.68 784.86 1177.1C779.929 1179.55 774.589 1179.96 769.15 1180.1C750.66 1180.58 732.157 1180.9 713.648 1181.13C711.11 1161.33 710.078 1141.34 706.581 1121.66C705.682 1116.6 697.971 1118.74 698.867 1123.79C702.244 1142.79 703.325 1162.09 705.682 1181.22C666.112 1181.65 626.52 1181.65 586.98 1181.77C533.395 1181.92 479.817 1181.81 426.234 1181.78L403.27 1181.77C341.37 1181.77 279.469 1181.57 217.57 1181.16L202.849 1181.06C196.993 1146.54 193.007 1111.72 192.933 1076.64C192.922 1071.5 184.922 1071.49 184.933 1076.64C185.007 1111.68 188.949 1146.5 194.751 1181.02C180.095 1180.95 165.446 1181 150.789 1181.52L143.329 1181.79C128.403 1182.3 113.447 1182.62 98.549 1181.43C82.009 1180.1 65.28 1177.06 50.45 1169.27C43.771 1165.75 37.89 1161.26 32.864 1155.97C37.973 1153 43.155 1150.15 48.104 1146.91C52.395 1144.11 48.392 1137.18 44.066 1140.01C38.733 1143.5 33.127 1146.54 27.636 1149.76C23.66 1144.46 20.397 1138.57 17.919 1132.22C14.009 1122.18 12.499 1111.39 11.189 1100.77C9.64002 1088.27 8.99902 1075.65 8.99902 1063.06C8.99902 1036.56 11.789 1010.14 15.68 983.955C19.4009 958.874 24.3194 933.995 29.5184 909.196L30.229 905.814C35.359 881.434 40.249 856.984 46.129 832.774C51.566 810.387 57.849 788.105 65.337 766.254C72.002 770.375 78.977 773.98 85.538 778.273C89.859 781.101 93.872 774.177 89.576 771.366C82.576 766.785 75.11 762.978 68.046 758.502C76.419 735.104 86.247 712.252 98.03 690.365C121.629 646.535 153.43 607.324 194.16 578.385C214.549 563.904 236.919 552.055 260.41 543.434C284.36 534.635 309.179 529.814 334.559 527.835C335.284 527.778 335.69 528.448 335.661 529.069L335.65 529.184L336.65 529.345C337.02 526.835 337.78 524.404 339.23 522.175C342.53 517.095 348.789 513.835 353.789 510.715L354.974 509.978C360.923 506.29 367.201 502.658 374.12 501.365C374.36 501.324 374.509 501.574 374.349 501.765C369.786 506.996 363.952 510.993 358.605 515.418L357.376 516.443C352.945 520.09 346.764 524.229 346.599 530.324C346.41 537.505 347.879 544.974 348.41 552.135C348.94 559.274 349.309 566.404 349.499 573.564C350.19 599.215 349.36 624.875 347.089 650.425L357.128 643.704C372.752 633.245 388.428 622.816 404.429 613.024C414.11 607.095 424.99 602.024 436.589 602.255C439.839 602.314 443.509 602.785 447.03 603.785C443.24 600.195 439.61 596.375 435.9 592.765C429.789 586.814 423.679 580.865 417.57 574.925L399.953 557.765L382.329 540.604C376.87 535.274 370.469 530.365 371.049 521.965C371.52 515.265 374.929 508.595 377.259 502.135C377.589 501.205 377.889 500.285 378.169 499.375C382.87 483.755 385.539 467.564 390.309 452.005ZM618 1122.2C614.356 1118.55 608.698 1124.21 612.344 1127.86L614.272 1129.78C617.492 1132.99 620.684 1136.3 622.912 1140.27L623.239 1140.87C625.64 1145.43 632.548 1141.39 630.146 1136.83C627.177 1131.2 622.454 1126.66 618 1122.2ZM461.868 1121.17C450.267 1118.96 439.086 1118.96 427.485 1121.17C422.434 1122.14 424.573 1129.85 429.612 1128.89C439.758 1126.95 449.594 1126.95 459.741 1128.89C464.772 1129.85 466.927 1122.14 461.868 1121.17ZM305.196 1040.53C300.204 1039.27 298.074 1046.98 303.07 1048.24L305.53 1048.86C313.891 1050.93 321.854 1052.47 330.54 1050.55C335.499 1049.45 333.494 1041.93 328.61 1042.79L328.413 1042.83C320.376 1044.61 312.972 1042.5 305.196 1040.53ZM583.441 988.567C579.747 984.976 574.084 990.627 577.784 994.223C582.401 998.713 587.842 1002.13 594.436 1002.31C599.509 1002.45 599.581 994.687 594.663 994.319L594.436 994.307C590.017 994.184 586.496 991.538 583.441 988.567ZM112.616 967.201C117.222 964.898 113.175 957.996 108.579 960.294L80.931 974.117V974.117C76.325 976.42 80.372 983.324 84.968 981.025L112.616 967.201V967.201ZM658.948 968.964C653.798 968.819 653.802 976.819 658.948 976.964C663.787 977.099 668.746 978.932 673.057 981.025C677.669 983.265 681.73 976.369 677.095 974.117C671.459 971.381 665.272 969.14 658.948 968.964ZM400.616 930.338C404.85 927.461 400.852 920.525 396.578 923.43C390.746 927.392 385.462 932.075 379.723 936.157L378.146 937.254C373.912 940.131 377.91 947.065 382.184 944.162C388.545 939.839 394.255 934.659 400.616 930.338ZM698.116 872.195C692.968 872.193 692.96 880.193 698.116 880.195L699.092 880.192C703.341 880.168 707.82 880.051 711.771 881.749L712.225 881.953C716.857 884.135 720.922 877.24 716.263 875.046C710.47 872.318 704.413 872.198 698.116 872.195ZM253.836 866.48L254.508 866.228C259.318 864.501 257.244 856.767 252.381 858.515C245.053 861.148 239.352 866.121 232.995 870.437C228.759 873.314 232.757 880.248 237.032 877.346C242.509 873.626 247.606 868.916 253.836 866.48V866.48ZM553.904 845.668L554.983 845.09C559.563 842.733 555.52 835.828 550.946 838.182C547.315 840.05 544.066 842.536 540.504 844.516L539.425 845.094C534.846 847.45 538.888 854.355 543.463 852.002C547.094 850.133 550.343 847.647 553.904 845.668V845.668ZM432.201 768.18L431.377 767.384C427.695 763.779 422.034 769.432 425.72 773.041C434.926 782.051 445.81 788.892 456.789 795.506L458.786 796.706C463.211 799.361 467.238 792.447 462.824 789.798L459.893 788.036C450.132 782.15 440.484 776.073 432.201 768.18V768.18ZM210.819 760.711C213.921 756.683 207.175 752.741 204.022 756.534L203.911 756.673C200.682 760.865 196.85 764.66 192.846 768.124L192.093 768.769C189.709 770.797 185.37 775.142 182.021 775.428C176.929 775.861 176.883 783.865 182.021 783.428C187.203 782.987 191.662 779.34 195.577 776.215C201.275 771.668 206.372 766.483 210.819 760.711ZM636.432 731.568C640.149 728.076 634.658 722.518 630.908 725.793L630.776 725.912C623.829 732.438 613.836 734.189 604.893 736.402C599.898 737.64 602.014 745.356 607.02 744.117L611.094 743.111C620.233 740.831 629.403 738.174 636.432 731.568ZM477.996 681.107C473.004 679.838 470.874 687.552 475.87 688.821C484.355 690.977 492.392 693.764 500.257 697.634C504.861 699.898 508.919 693.002 504.295 690.726C495.833 686.562 487.132 683.429 477.996 681.107ZM559.719 512.465C559.599 512.105 559.98 511.695 560.349 511.824C569.327 515.171 564.554 526.93 561.765 533.968L561.259 535.255C556.889 546.535 550.78 557.515 544.12 567.615C537.15 578.185 529.41 588.305 521.03 597.805C517.394 601.929 513.624 605.935 509.726 609.822L508.259 611.274C504.32 615.145 499.24 621.945 493.129 621.195C486.549 620.404 482.879 613.375 487.679 608.035C491.07 604.255 495.77 601.244 499.559 597.805C503.32 594.404 506.96 590.895 510.509 587.285C517.77 579.875 524.65 572.045 530.94 563.795C537.023 555.817 542.845 547.618 548.138 539.094L549.19 537.385C553.219 530.755 562.52 521.005 559.719 512.465ZM241.64 596.263C237.378 593.349 233.372 600.279 237.602 603.17C245.38 608.486 252.223 614.926 260.642 619.298C265.15 621.64 269.159 614.929 264.84 612.478L264.68 612.391C256.267 608.02 249.414 601.575 241.64 596.263Z" fill="black"/>
</svg>
